<svg width="134" height="114" viewBox="0 0 134 114" fill="none" xmlns="http://www.w3.org/2000/svg">
<path fill-rule="evenodd" clip-rule="evenodd" d="M121.797 2.73346L124.425 0.975466L133.179 0.975466L119.772 23.7402L111.746 23.7402L111.231 23.7402L110.965 24.1841L86.442 67.121L86.2467 67.4406L86.3533 67.7958L88.6617 76.5679L66.5895 114L44.535 76.5679L46.8435 67.7958L46.9323 67.4406L46.7546 67.121L22.2319 24.1841L21.9656 23.7402L21.4506 23.7402L13.4244 23.7402L-4.94046e-06 0.975464L8.77205 0.975463L11.4001 2.73347L15.9987 2.73347L66.6302 89.1401L117.262 2.73346L121.797 2.73346Z" fill="white"/>
<circle cx="67.4761" cy="16.3359" r="15.9815" transform="rotate(-90 67.4761 16.3359)" fill="white"/>
</svg>
